<svg width="28" height="24" viewBox="0 0 28 24" fill="none" xmlns="http://www.w3.org/2000/svg">
<path d="M20.9882 2.00012C22.6882 4.30012 19.1882 4.30012 20.9882 7.00012M13.9882 23.0001C27.4882 23.0001 27.1882 21.2001 26.8882 17.4001C26.5882 13.2001 21.9882 10.0001 13.9882 10.0001C5.98822 10.0001 1.38822 13.2001 1.08822 17.4001C0.788221 21.2001 0.488221 23.0001 13.9882 23.0001ZM13.9882 15.0001C13.9882 13.5001 14.0882 11.8001 14.9882 10.0001L13.9882 15.0001ZM7.98822 15.0001C7.98822 13.5001 8.08822 12.4001 8.98822 10.7001L7.98822 15.0001ZM19.9882 15.0001C19.9882 13.7001 20.0882 12.6001 20.7882 11.1001L19.9882 15.0001ZM13.9882 1.00012C15.6882 3.30012 12.1882 3.30012 13.9882 6.00012V1.00012ZM6.98822 2.00012C8.68822 4.30012 5.18822 4.30012 6.98822 7.00012V2.00012Z" stroke="#21A300" stroke-width="2" stroke-miterlimit="10" stroke-linecap="round" stroke-linejoin="round"/>
</svg>
