<svg width="29" height="24" viewBox="0 0 29 24" fill="none" xmlns="http://www.w3.org/2000/svg">
<path d="M9.18054 0C5.24596 0 2.02847 3.18597 2.02848 7.10133C2.06601 8.07486 2.22811 9.16239 2.4269 10.0036H1.02266C-0.340887 9.97333 -0.340887 12.034 1.02266 12.0034H3.05188C4.80426 16.5573 8.72571 21.1103 13.5358 23.8644C13.8422 24.0386 14.2177 24.0386 14.5241 23.8644C17.7041 22.0436 20.539 19.3122 22.6077 16.3216C23.5775 14.9198 24.3738 13.461 24.9573 12.0034H27.0294C28.393 12.0336 28.393 9.97295 27.0294 10.0036H25.6115C25.8759 8.99515 26.0123 8.05502 26.0256 7.10133C26.0256 3.18597 22.8062 0 18.8716 0C17.04 0 15.3181 0.696266 14.0202 1.88473C12.7233 0.699214 11.0104 0 9.18054 0ZM9.18054 2.00191C10.7742 2.00191 12.2426 2.72143 13.2038 3.9119C13.5767 4.37393 14.2677 4.41123 14.6881 3.99206C15.9281 2.90307 17.474 2.02463 18.8716 2.00191C21.6876 2.00191 23.9448 4.20329 24.0178 6.96454C23.9551 8.03471 23.7907 9.13797 23.5354 10.0036H19.0278C18.7628 10.0016 18.5078 10.1048 18.3189 10.2908L17.2994 11.3103L15.9205 8.55654C15.5513 7.82198 14.5027 7.82198 14.1335 8.55654L13.1296 10.5642L11.9558 7.62681C11.8028 7.24399 11.4306 6.99436 11.0184 6.99799C10.685 7.00127 10.3752 7.17027 10.1922 7.44907L8.49307 10.0037H4.54206C4.25659 8.93918 4.06442 7.89422 4.03817 6.91979C4.13456 4.17974 6.37993 2.00203 9.18054 2.00203V2.00191ZM10.8035 10.1363L12.0964 13.3687C12.4145 14.1701 13.5299 14.2203 13.9186 13.4507L15.026 11.2359L16.1334 13.4507C16.4395 14.0604 17.2529 14.1913 17.7349 13.7084L19.4399 12.0034H22.7757C22.2943 13.0632 21.6844 14.1396 20.9613 15.1849C19.1831 17.7555 16.6798 20.0209 14.03 21.6651C10.2059 19.2921 7.0067 15.5694 5.32718 12.0034H9.0243C9.36113 12.0034 9.67533 11.8337 9.8602 11.5522L10.8035 10.1363Z" fill="#00A3A3"/>
</svg>
