<svg width="24" height="27" viewBox="0 0 24 27" fill="none" xmlns="http://www.w3.org/2000/svg">
<path d="M22.6668 8.03191L14.6668 1.01858C13.9334 0.362636 12.984 0 12.0001 0C11.0162 0 10.0668 0.362636 9.33346 1.01858L1.33346 8.03191C0.909951 8.41067 0.571993 8.87532 0.342089 9.3949C0.112185 9.91448 -0.00439008 10.4771 0.000126392 11.0452V22.6986C0.000126392 23.7594 0.421554 24.7769 1.1717 25.527C1.92184 26.2771 2.93926 26.6986 4.00013 26.6986H20.0001C21.061 26.6986 22.0784 26.2771 22.8286 25.527C23.5787 24.7769 24.0001 23.7594 24.0001 22.6986V11.0319C24.0027 10.466 23.8853 9.90596 23.6554 9.38882C23.4256 8.87167 23.0886 8.40918 22.6668 8.03191ZM14.6668 24.0319H9.33346V17.3652C9.33346 17.0116 9.47394 16.6725 9.72398 16.4224C9.97403 16.1724 10.3132 16.0319 10.6668 16.0319H13.3335C13.6871 16.0319 14.0262 16.1724 14.2763 16.4224C14.5263 16.6725 14.6668 17.0116 14.6668 17.3652V24.0319ZM21.3335 22.6986C21.3335 23.0522 21.193 23.3913 20.9429 23.6414C20.6929 23.8914 20.3537 24.0319 20.0001 24.0319H17.3335V17.3652C17.3335 16.3044 16.912 15.287 16.1619 14.5368C15.4117 13.7867 14.3943 13.3652 13.3335 13.3652H10.6668C9.60593 13.3652 8.58851 13.7867 7.83837 14.5368C7.08822 15.287 6.66679 16.3044 6.66679 17.3652V24.0319H4.00013C3.6465 24.0319 3.30737 23.8914 3.05732 23.6414C2.80727 23.3913 2.66679 23.0522 2.66679 22.6986V11.0319C2.66703 10.8426 2.70758 10.6555 2.78575 10.4831C2.86391 10.3107 2.9779 10.1569 3.12013 10.0319L11.1201 3.03191C11.3634 2.81815 11.6762 2.70026 12.0001 2.70026C12.324 2.70026 12.6368 2.81815 12.8801 3.03191L20.8801 10.0319C21.0223 10.1569 21.1363 10.3107 21.2145 10.4831C21.2927 10.6555 21.3332 10.8426 21.3335 11.0319V22.6986Z" fill="#A36200"/>
</svg>
