<svg width="25" height="25" viewBox="0 0 25 25" fill="none" xmlns="http://www.w3.org/2000/svg">
<path d="M4.51613 24.862H3.51613C2.42313 24.862 1.45713 24.428 0.797132 23.642C0.137132 22.855 -0.131868 21.778 0.0611323 20.688C0.439132 18.542 2.42113 16.862 4.57513 16.862H7.09313V3.73301C7.09534 2.9724 7.38542 2.24082 7.90506 1.68538C8.4247 1.12994 9.13535 0.791819 9.89413 0.739009L20.8941 0.00600901C21.3037 -0.0198637 21.7143 0.0379952 22.1008 0.176055C22.4873 0.314115 22.8416 0.52948 23.1421 0.809009C23.7461 1.37401 24.0931 2.17301 24.0931 3.00001L24.0831 17.369C24.0821 17.589 24.0711 17.807 24.0301 18.037C23.6521 20.182 21.6701 21.862 19.5161 21.862H18.5161C17.4231 21.862 16.4571 21.428 15.7971 20.642C15.1371 19.855 14.8681 18.778 15.0611 17.688C15.4391 15.542 17.4211 13.862 19.5751 13.862H22.0931V9.00001C22.0931 8.72001 21.9811 8.46001 21.7761 8.26901C21.6767 8.17489 21.5587 8.10254 21.4298 8.05657C21.3008 8.0106 21.1637 7.99201 21.0271 8.00201L10.0271 8.73501C9.7742 8.75269 9.53733 8.8654 9.36408 9.05052C9.19083 9.23565 9.09403 9.47946 9.09313 9.73301V20.362C9.09313 20.451 9.08113 20.537 9.06013 20.619C9.05113 20.924 9.04013 20.98 9.03113 21.037C8.65113 23.181 6.66913 24.862 4.51613 24.862ZM4.57413 18.862C3.40213 18.862 2.23713 19.857 2.02913 21.036C1.93913 21.55 2.04613 22.018 2.32913 22.357C2.60213 22.682 3.02413 22.862 3.51613 22.862H4.51613C5.68813 22.862 6.85313 21.867 7.06113 20.688C7.05813 20.686 7.07213 20.395 7.08113 18.862H4.57413ZM19.5741 15.862C18.4021 15.862 17.2371 16.857 17.0291 18.036C16.9391 18.55 17.0461 19.018 17.3291 19.357C17.6021 19.682 18.0241 19.862 18.5161 19.862H19.5161C20.6881 19.862 21.8531 18.867 22.0611 17.688C22.0811 17.575 22.0821 17.465 22.0821 17.358L22.0891 15.862H19.5741ZM10.0251 2.73501C9.7722 2.75268 9.53533 2.8654 9.36208 3.05052C9.18883 3.23565 9.09203 3.47946 9.09113 3.73301V6.90501C9.34413 6.81501 9.61213 6.75801 9.89213 6.73901L20.8921 6.00601C21.3001 5.98301 21.7091 6.03701 22.0911 6.17201V2.99901C22.0911 2.71901 21.9791 2.45901 21.7741 2.26801C21.6746 2.1741 21.5566 2.10188 21.4276 2.05592C21.2987 2.00996 21.1617 1.99126 21.0251 2.00101L10.0251 2.73501Z" fill="#A000A3"/>
</svg>
