<svg width="32" height="16" viewBox="0 0 32 16" fill="none" xmlns="http://www.w3.org/2000/svg">
<path d="M25.3333 0H22.6667C21.196 0 20 1.196 20 2.66667V6.66667H12V2.66667C12 1.196 10.804 0 9.33333 0H6.66667C5.196 0 4 1.196 4 2.66667V13.3333C4 14.804 5.196 16 6.66667 16H9.33333C10.804 16 12 14.804 12 13.3333V9.33333H20V13.3333C20 14.804 21.196 16 22.6667 16H25.3333C26.804 16 28 14.804 28 13.3333V2.66667C28 1.196 26.804 0 25.3333 0ZM6.66667 13.3333V2.66667H9.33333L9.33467 13.3333H6.66667ZM22.6667 13.3333V2.66667H25.3333L25.3347 13.3333H22.6667ZM29.3333 5.33333H32V10.6667H29.3333V5.33333ZM0 5.33333H2.66667V10.6667H0V5.33333Z" fill="#00A32F"/>
</svg>
