<svg width="28" height="22" viewBox="0 0 28 22" fill="none" xmlns="http://www.w3.org/2000/svg">
<path d="M27.3159 7.48L25.9826 6.74667L13.9826 0.0799999H13.8359C13.7542 0.0454383 13.6694 0.0186534 13.5826 0H13.3293H13.0893C12.9982 0.0186657 12.9089 0.0454388 12.8226 0.0799999H12.6759L0.675931 6.74667C0.470734 6.86296 0.300056 7.0316 0.18131 7.23538C0.0625642 7.43917 0 7.67081 0 7.90667C0 8.14253 0.0625642 8.37416 0.18131 8.57795C0.300056 8.78174 0.470734 8.95038 0.675931 9.06667L3.99593 10.9067V17.2267C3.99593 18.2875 4.41736 19.3049 5.1675 20.0551C5.91765 20.8052 6.93507 21.2267 7.99593 21.2267H18.6626C19.7235 21.2267 20.7409 20.8052 21.491 20.0551C22.2412 19.3049 22.6626 18.2875 22.6626 17.2267V10.9067L25.3293 9.41333V13.2267C25.3293 13.5803 25.4697 13.9194 25.7198 14.1695C25.9698 14.4195 26.309 14.56 26.6626 14.56C27.0162 14.56 27.3554 14.4195 27.6054 14.1695C27.8555 13.9194 27.9959 13.5803 27.9959 13.2267V8.64C27.9955 8.40374 27.9323 8.17183 27.8129 7.96801C27.6934 7.76418 27.5219 7.59577 27.3159 7.48ZM19.9959 17.2267C19.9959 17.5803 19.8555 17.9194 19.6054 18.1695C19.3554 18.4195 19.0162 18.56 18.6626 18.56H7.99593C7.64231 18.56 7.30317 18.4195 7.05312 18.1695C6.80307 17.9194 6.6626 17.5803 6.6626 17.2267V12.3867L12.6759 15.72L12.8759 15.8H12.9959C13.1066 15.8139 13.2186 15.8139 13.3293 15.8C13.4399 15.8139 13.5519 15.8139 13.6626 15.8H13.7826C13.8534 15.7851 13.921 15.758 13.9826 15.72L19.9959 12.3867V17.2267ZM13.3293 13.04L4.07593 7.89333L13.3293 2.74667L22.5826 7.89333L13.3293 13.04Z" fill="#0055A3"/>
</svg>
